{"title":"Control Bhaji Control 2014 Punjabi DVDRIP GOPI SAHI PDR","uid":11371939,"size":322921265,"categoryP":"video","categoryS":"movies","magnet":"?xt=urn:btih:5e88b3e97bc08a21fa370a9f9f242cbc8d801447&amp;dn=Control+Bhaji+Control+2014+Punjabi+DVDRIP+GOPI+SAHI+PDR&amp;tr=udp%3A%2F%2Ftracker.openbittorrent.com%3A80&amp;tr=udp%3A%2F%2Fopen.demonii.com%3A1337&amp;tr=udp%3A%2F%2Ftracker.coppersurfer.tk%3A6969&amp;tr=udp%3A%2F%2Fexodus.desync.com%3A6969","seeders":1,"leechers":1,"uploader":"jatt13","files":1,"time":1415098463,"description":"General\nComplete name                  : D:Control Bhaji Control 2014 Punjabi DVDRIP GOPI SAHI PDR.mp4\nFormat                         : MPEG-4\nFormat profile                 : Base Media / Version 2\nCodec ID                       : mp42\nFile size                      : 308 MiB\nDuration                       : 2h 21mn\nOverall bit rate mode          : Variable\nOverall bit rate               : 305 Kbps\nEncoded date                   : UTC 2014-11-04 22:18:19\nTagged date                    : UTC 2014-11-04 23:09:46\nWriting application            : HandBrake 0.9.9 2013052900\n\nVideo\nID                             : 1\nFormat                         : AVC\nFormat/Info                    : Advanced Video Codec\nFormat profile                 : &lt;a class=&quot;__cf_email__&quot; href=&quot;/cdn-cgi/l/email-protection&quot; data-cfemail=&quot;db96bab2b59b97eff5eb&quot;&gt;[email&amp;#160;protected]&lt;/a&gt;&lt;script cf-hash='f9e31' type=&quot;text/javascript&quot;&gt;\n/* &lt;![CDATA[ */!function(){try{var t=&quot;currentScript&quot;in document?document.currentScript:function(){for(var t=document.getElementsByTagName(&quot;script&quot;),e=t.length;e--;)if(t[e].getAttribute(&quot;cf-hash&quot;))return t[e]}();if(t&amp;&amp;t.previousSibling){var e,r,n,i,c=t.previousSibling,a=c.getAttribute(&quot;data-cfemail&quot;);if(a){for(e=&quot;&quot;,r=parseInt(a.substr(0,2),16),n=2;a.length-n;n+=2)i=parseInt(a.substr(n,2),16)^r,e+=String.fromCharCode(i);e=document.createTextNode(e),c.parentNode.replaceChild(e,c)}}}catch(u){}}();/* ]]&gt; */&lt;/script&gt;\nFormat settings, CABAC         : Yes\nFormat settings, ReFrames      : 4 frames\nCodec ID                       : avc1\nCodec ID/Info                  : Advanced Video Coding\nDuration                       : 2h 21mn\nBit rate mode                  : Variable\nBit rate                       : 200 Kbps\nWidth                          : 720 pixels\nHeight                         : 304 pixels\nDisplay aspect ratio           : 2.35:1\nFrame rate mode                : Variable\nFrame rate                     : 24.000 fps\nMinimum frame rate             : 23.810 fps\nMaximum frame rate             : 24.390 fps\nColor space                    : YUV\nChroma subsampling             : 4:2:0\nBit depth                      : 8 bits\nScan type                      : Progressive\nBits/(Pixel*Frame)             : 0.038\nStream size                    : 206 MiB (67%)\nEncoded date                   : UTC 2014-11-04 22:18:19\nTagged date                    : UTC 2014-11-04 23:09:46\nColor primaries                : BT.601 NTSC\nTransfer characteristics       : BT.709\nMatrix coefficients            : BT.601\n\nAudio\nID                             : 2\nFormat                         : AAC\nFormat/Info                    : Advanced Audio Codec\nFormat profile                 : LC\nCodec ID                       : 40\nDuration                       : 2h 21mn\nBit rate mode                  : Variable\nBit rate                       : 96.0 Kbps\nMaximum bit rate               : 207 Kbps\nChannel(s)                     : 2 channels\nChannel positions              : Front: L R\nSampling rate                  : 44.1 KHz\nCompression mode               : Lossy\nDelay relative to video        : 84ms\nStream size                    : 97.1 MiB (32%)\nEncoded date                   : UTC 2014-11-04 22:18:19\nTagged date                    : UTC 2014-11-04 23:09:46\n[IMG]http://imgchicken.com/images/69263314370679628120.jpg[/IMG]\n[IMG]http://imgchicken.com/images/43593331895918583606.jpg[/IMG]\n[IMG]http://imgchicken.com/images/41057920417536620911.jpg[/IMG]","torrent":{"xt":"urn:btih:5e88b3e97bc08a21fa370a9f9f242cbc8d801447","amp;dn":"Control+Bhaji+Control+2014+Punjabi+DVDRIP+GOPI+SAHI+PDR","amp;tr":["udp%3A%2F%2Ftracker.openbittorrent.com%3A80","udp%3A%2F%2Fopen.demonii.com%3A1337","udp%3A%2F%2Ftracker.coppersurfer.tk%3A6969","udp%3A%2F%2Fexodus.desync.com%3A6969"],"infoHash":"5e88b3e97bc08a21fa370a9f9f242cbc8d801447","infoHashBuffer":{"type":"Buffer","data":[94,136,179,233,123,192,138,33,250,55,10,159,159,36,44,188,141,128,20,71]},"announce":[],"urlList":[]}}